<?xml version="1.0" encoding="utf-8"?>
<!-- Generator: Adobe Illustrator 27.0.1, SVG Export Plug-In . SVG Version: 6.00 Build 0)  -->
<svg version="1.1" id="Layer_1" xmlns="http://www.w3.org/2000/svg" xmlns:xlink="http://www.w3.org/1999/xlink" x="0px" y="0px"
	 viewBox="0 0 331 315" style="enable-background:new 0 0 331 315;" xml:space="preserve">
<style type="text/css">
	.st0{fill:#231F20;}
	.st1{fill:#8BC058;}
	.st2{fill:#FFFFFF;}
</style>
<rect class="st0" width="331" height="315"/>
<g>
	<polygon class="st1" points="231.5,158.8 273.2,158.8 311.9,120.1 235.8,120.1 307.5,15 170.9,141.1 243.9,141.1 	"/>
	<polygon class="st1" points="183.5,227.3 133.9,298 204.6,227.3 	"/>
</g>
<g>
	<path class="st2" d="M22,169.8h35.3v9.3H32.2v9.9h22.1v9.3H32.2v18H22V169.8z"/>
	<path class="st2" d="M74.7,169.5h9.4l19.9,46.7H93.3L89,205.8H69.4l-4.2,10.4H54.8L74.7,169.5z M85.4,196.8l-6.2-15l-6.2,15H85.4z"
		/>
	<path class="st2" d="M108.5,169.8h11l12.2,19.6l12.2-19.6h11v46.4h-10.1v-30.3l-13.1,19.8h-0.3l-12.9-19.6v30.1h-10V169.8z"/>
	<path class="st2" d="M166.9,169.8h10.2v46.4h-10.2V169.8z"/>
	<path class="st2" d="M188.7,169.8h10.2V207H222v9.3h-33.3V169.8z"/>
	<path class="st2" d="M234.1,197.9l-17.8-28.1h11.9l11.1,18.6l11.3-18.6h11.6l-17.8,27.9v18.5h-10.2V197.9z"/>
</g>
<g>
	<path class="st2" d="M22,123.3h10.1v5c2.3-3,5.3-5.7,10.4-5.7c7.6,0,12.1,5,12.1,13.2v23H44.5V139c0-4.8-2.3-7.2-6.1-7.2
		s-6.3,2.5-6.3,7.2v19.8H22V123.3z"/>
	<path class="st2" d="M64.3,112.4h19c11.1,0,17.8,6.6,17.8,16v0.1c0,10.7-8.4,16.3-18.8,16.3h-7.8v13.9H64.3V112.4z M82.6,135.8
		c5.1,0,8.1-3,8.1-7v-0.1c0-4.6-3.2-7-8.3-7h-7.9v14.2H82.6z"/>
	<path class="st2" d="M108.5,112.4h11l12.2,19.6l12.2-19.6h11v46.4h-10.1v-30.3l-13.1,19.8h-0.3l-12.9-19.6v30.1h-10V112.4z"/>
</g>
</svg>
